<?xml version="1.0" encoding="UTF-8"?>
<svg id="soundskrit-logo-gradient" xmlns="http://www.w3.org/2000/svg" viewBox="0 0 136.99 45.13">
  <defs>
    <style>
      .cls-1 {
        fill: #fff;
      }
    </style>
  </defs>
  <path class="cls-1" d="m32.41,36.66c-1.37,0-2.28,1.01-2.28,2.31s.98,2.34,2.44,2.34c.62,0,1.19-.18,1.58-.56.08-.07.09-.14.05-.2l-.33-.46c-.05-.06-.09-.07-.15-.04-.36.21-.69.27-1.03.27-.71,0-1.18-.31-1.31-.87h2.7c.39,0,.49-.24.49-.68,0-1.12-.78-2.12-2.13-2.12Zm-1.08,1.92c.11-.59.53-.89,1.09-.89s.93.3,1,.89h-2.09Zm-11.44-23.15c-4.12,0-7.47,3.33-7.48,7.45v.03c-.01,4.1,3.31,7.44,7.41,7.45h.04c4.12,0,7.47-3.33,7.48-7.45,0-4.12-3.33-7.47-7.45-7.48Zm.11,10.87s-.09,0-.13,0h0c-1.81-.02-3.26-1.49-3.24-3.3,0-.03,0-.06,0-.09-.1-1.79,1.28-3.32,3.07-3.42,1.79-.1,3.32,1.28,3.42,3.07,0,.12,0,.24,0,.35.08,1.79-1.32,3.31-3.11,3.39Zm4.34,10.47h-.7v-1.04c0-.08-.05-.14-.14-.14h-.99c-.08,0-.14.05-.14.14v1.04h-.56c-.08,0-.14.05-.14.14v.7c0,.08.05.14.14.14h.56v2.23c0,.97.63,1.29,1.34,1.29.3,0,.75-.05.75-.26v-.66c0-.09-.06-.14-.16-.13-.11,0-.2,0-.28,0-.24,0-.39-.13-.39-.39v-2.09h.7c.08,0,.14-.05.14-.14v-.7c0-.08-.05-.14-.14-.14Zm-4.76,0c-.07-.05-.2-.11-.41-.11-.53,0-.81.35-.96.82l-.04-.57c0-.11-.05-.14-.14-.14h-.94c-.08,0-.14.05-.14.14v4.16c0,.08.05.14.14.14h.98c.08,0,.14-.05.14-.14v-2.22c0-.63.33-1.04.94-1.04.13,0,.23.02.33.05.12.03.18,0,.18-.11v-.8c0-.08-.02-.14-.08-.18Zm8.19-.11c-.66,0-1.09.33-1.34.78v-2.57c0-.08-.05-.14-.14-.14h-.98c-.08,0-.14.05-.14.14v6.2c0,.08.05.14.14.14h.98c.08,0,.14-.05.14-.14v-2.3c0-.62.34-.96.87-.96s.82.33.82.96v2.3c0,.08.05.14.14.14h.97c.08,0,.14-.05.14-.14v-2.58c0-1.16-.68-1.83-1.6-1.83Zm-11.93.11h-.89c-.08,0-.14.05-.14.14l-.02.49c-.3-.46-.78-.73-1.45-.73-1.25,0-2.11,1.01-2.11,2.33s.86,2.33,2.11,2.33c.66,0,1.14-.28,1.45-.73l.02.49c0,.08.05.14.14.14h.88c.08,0,.14-.05.14-.14v-4.16c0-.08-.05-.14-.14-.14Zm-2.23,3.4c-.66,0-1.15-.47-1.15-1.19s.49-1.19,1.15-1.19,1.12.47,1.12,1.19-.46,1.19-1.12,1.19Zm95.57-10.11s.03,0,.05,0h3.51c.23.01.42-.16.44-.39,0-.02,0-.03,0-.05v-7.13c0-1.75,1.08-3.1,2.89-3.1.41,0,.81.09,1.2.23.35.09.61.03.73-.32l.96-2.51c.11-.22.05-.49-.15-.64h0c-.55-.48-1.26-.74-1.99-.73-1.75,0-2.95,1.02-3.68,2.43l-.12-1.66c0-.24-.19-.43-.42-.44,0,0,0,0-.01,0h-3.36c-.23-.01-.42.16-.44.39,0,.02,0,.03,0,.05v13.44c-.01.23.16.42.39.44Zm-16.2,0s.03,0,.05,0h3.51c.23.01.42-.16.44-.39,0-.02,0-.03,0-.05v-3.24l1.72-1.87,3.97,5.29c.11.18.32.28.53.26h3.77c.35,0,.44-.23.26-.53h0s-5.87-7.89-5.87-7.89l4.99-5.38c.26-.26.15-.53-.23-.53h-3.97c-.19-.01-.38.08-.5.23l-4.67,5.08v-11.89c.01-.23-.16-.42-.39-.44-.02,0-.03,0-.05,0h-3.51c-.23-.01-.42.16-.44.39,0,.02,0,.03,0,.05v20.45c-.01.23.16.42.39.44Zm31.46-14.31h-3.51c-.23-.01-.42.16-.44.39,0,.02,0,.03,0,.05h0s0,13.44,0,13.44c-.01.23.16.42.39.44.02,0,.03,0,.05,0h3.51c.23.01.42-.16.44-.39,0-.02,0-.03,0-.05v-13.44c.01-.23-.16-.42-.39-.44-.02,0-.03,0-.05,0ZM4.58,19.9h0c0-.5.41-.99,1.29-.99s1.49.35,2.6.99c.26.18.47.26.64.03l1.31-1.72c.17-.16.18-.43.03-.61-1.28-1.42-3.12-2.21-5.03-2.16-2.57,0-5.05,1.61-5.05,4.5,0,4.82,6.6,3.91,6.6,5.84,0,.79-.85.93-1.52.93-1.22-.08-2.39-.5-3.39-1.2-.26-.15-.5-.2-.67,0l-1.29,1.87c-.15.17-.15.42,0,.58,1.41,1.54,3.4,2.41,5.49,2.39,2.66,0,5.64-1.61,5.64-4.53,0-5.29-6.66-3.91-6.66-5.93Zm118.1-6.66s.02,0,.02,0h0c1.3,0,2.36-1.04,2.37-2.34s-1.04-2.36-2.34-2.37c-1.3,0-2.36,1.04-2.37,2.34,0,0,0,.02,0,.03,0,1.28,1.03,2.33,2.31,2.34Zm-108.36-1.17c.09-.08,9.49-7.68,22.68-7.68,13.34,0,23.28,7.89,23.37,7.96.39.32.88.49,1.38.49h0c.66,0,1.29-.3,1.7-.81.76-.94.62-2.32-.32-3.08-.45-.36-11.19-8.94-26.13-8.94S11.96,8.33,11.53,8.69c-.92.77-1.05,2.13-.29,3.06.76.94,2.14,1.08,3.08.32Zm-5.72,24.59c-1.37,0-2.28,1.01-2.28,2.31s.98,2.34,2.44,2.34c.62,0,1.19-.18,1.58-.56.08-.07.09-.14.05-.2l-.33-.46c-.05-.06-.09-.07-.15-.04-.36.21-.69.27-1.03.27-.71,0-1.18-.31-1.31-.87h2.7c.39,0,.49-.24.49-.68,0-1.12-.78-2.12-2.13-2.12Zm-1.08,1.92c.11-.59.53-.89,1.09-.89s.93.3,1,.89h-2.09Zm-2.12-3.71h-1.02c-.08,0-.14.05-.14.14v2.52H1.92v-2.52c0-.08-.05-.14-.14-.14H.76c-.08,0-.14.05-.14.14v6.07c0,.08.05.14.14.14h1.02c.08,0,.14-.05.14-.14v-2.41h2.33v2.41c0,.08.05.14.14.14h1.02c.08,0,.14-.05.14-.14v-6.07c0-.08-.05-.14-.14-.14Zm61.09,1.9h-.99c-.08,0-.14.05-.14.14v4.16c0,.08.05.14.14.14h.99c.08,0,.14-.05.14-.14v-4.16c0-.08-.05-.14-.14-.14Zm7.75-2.04h-.99c-.08,0-.14.05-.14.14v6.2c0,.08.05.14.14.14h.99c.08,0,.14-.05.14-.14v-6.2c0-.08-.05-.14-.14-.14Zm-8.24-.14c-.4,0-.7.31-.7.69s.3.7.7.7.69-.31.69-.7-.29-.69-.69-.69Zm7.7-4.53s0,0,.01,0h2.98c.23.01.42-.16.44-.39,0-.02,0-.03,0-.05V9.17c.01-.23-.16-.42-.39-.44-.02,0-.03,0-.05,0h-3.51c-.23-.01-.42.16-.44.39,0,.02,0,.03,0,.05v7.89c-.96-1.04-2.32-1.62-3.74-1.61-4,0-6.92,3.3-6.92,7.48s2.92,7.33,6.92,7.33c1.58.06,3.1-.64,4.09-1.87l.18,1.23c0,.24.19.43.42.44Zm-4.16-3.8h0c-1.75.04-3.21-1.35-3.25-3.11,0-.08,0-.17,0-.25,0-2.04,1.37-3.45,3.24-3.45s3.21,1.52,3.21,3.45-1.28,3.36-3.21,3.36Zm.72,10.39c-.62,0-1.08.23-1.38.62v-2.42c0-.08-.05-.14-.14-.14h-.99c-.08,0-.14.05-.14.14v6.2c0,.08.06.14.14.14h.89c.08,0,.14-.05.14-.14l.02-.49c.31.45.78.73,1.45.73,1.24,0,2.1-1.01,2.1-2.33s-.86-2.33-2.1-2.33Zm-.26,3.51c-.67,0-1.13-.47-1.13-1.19s.46-1.19,1.13-1.19,1.14.48,1.14,1.19-.49,1.19-1.14,1.19Zm7.42-3.51c-1.37,0-2.28,1.01-2.28,2.31s.98,2.34,2.44,2.34c.62,0,1.19-.18,1.58-.56.08-.07.09-.14.05-.2l-.33-.46c-.05-.06-.09-.07-.15-.04-.36.21-.69.27-1.03.27-.71,0-1.18-.31-1.31-.87h2.7c.39,0,.49-.24.49-.68,0-1.12-.78-2.12-2.13-2.12Zm-1.08,1.92c.11-.59.53-.89,1.09-.89s.93.3,1,.89h-2.09Zm53.53-5c-.09.07-8.8,7.18-21.2,7.18s-21.77-7.38-21.86-7.45c-.92-.79-2.3-.69-3.09.23-.79.92-.69,2.3.23,3.09.03.03.07.06.1.08.42.34,10.54,8.43,24.62,8.43,8.67-.08,17.09-2.95,24-8.19h0c.93-.77,1.06-2.15.29-3.08s-2.15-1.06-3.09-.29Zm7.12-17.39c.01-.23-.16-.42-.39-.44-.02,0-.03,0-.05,0h-2.34v-3.94c.01-.23-.16-.42-.39-.44-.02,0-.03,0-.05,0h-3.51c-.23-.01-.42.16-.44.39,0,.02,0,.03,0,.05v3.94h-2.34c-.23-.01-.42.16-.44.39,0,.02,0,.03,0,.05v2.66c-.01.23.16.42.39.44.02,0,.03,0,.05,0h2.34v10.34c-.01.23.16.42.39.44.02,0,.03,0,.05,0h3.51c.23.01.42-.16.44-.39,0-.02,0-.03,0-.05v-10.34h2.34c.23.01.42-.16.44-.39,0-.02,0-.03,0-.05v-2.66Zm-51.92,14.17c2.66,0,5.64-1.61,5.64-4.53,0-5.29-6.66-3.91-6.66-5.93h0c0-.5.41-.99,1.29-.99s1.49.35,2.6.99c.26.18.47.26.64.03l1.31-1.72c.17-.16.18-.43.03-.61-1.28-1.42-3.12-2.21-5.03-2.16-2.57,0-5.05,1.61-5.05,4.5,0,4.82,6.6,3.91,6.6,5.84,0,.79-.85.93-1.52.93-1.22-.08-2.39-.5-3.39-1.2-.26-.15-.5-.2-.67,0l-1.29,1.87c-.15.17-.15.42,0,.58,1.41,1.54,3.4,2.41,5.49,2.39Zm-4.57,9.46c-.42,0-.74.34-.74.76s.33.74.74.74.75-.33.75-.74-.33-.76-.75-.76Zm-41.05-9.75h3.39c.23.01.42-.16.44-.39,0-.02,0-.03,0-.05v-13.44c.01-.23-.16-.42-.39-.44-.02,0-.03,0-.05,0h-3.51c-.23-.01-.42.16-.44.39,0,.02,0,.03,0,.05v7.62c-.03,1.43-1.21,2.57-2.64,2.54-.02,0-.05,0-.07,0-1.11,0-2.51-.64-2.51-2.95v-7.22c.01-.23-.16-.42-.39-.44-.02,0-.03,0-.05,0h-3.51c-.23-.01-.42.16-.44.39,0,.02,0,.03,0,.05v8.09c0,3.83,2.28,6.16,5.46,6.16,1.69-.06,3.24-.94,4.15-2.37l.12,1.55c0,.24.19.43.42.44,0,0,0,0,.01,0Zm24.12,8.6l-.62-.24c-.24-.09-.43-.21-.43-.43,0-.19.14-.35.43-.35.26,0,.52.13.81.37.08.06.14.07.21,0l.4-.48c.05-.05.06-.13,0-.19-.37-.44-.91-.68-1.48-.68-.82,0-1.55.49-1.55,1.34,0,.62.4,1,.97,1.22l.56.23c.33.14.46.23.46.45,0,.25-.2.37-.5.37-.34,0-.65-.15-1.02-.43-.07-.05-.15-.07-.23.04l-.32.44c-.06.1-.07.2-.02.26.35.42.91.73,1.66.73.89,0,1.66-.46,1.67-1.36,0-.68-.43-1.07-1-1.29Zm-19.23-2c-.69,0-1.12.34-1.37.79-.24-.52-.69-.79-1.26-.79-.61,0-1,.31-1.25.72l-.03-.47c0-.11-.05-.14-.14-.14h-.94c-.08,0-.14.05-.14.14v4.16c0,.08.05.14.14.14h.98c.08,0,.14-.05.14-.14v-2.33c0-.61.27-.93.74-.93s.71.33.71.93v2.33c0,.08.05.14.14.14h.97c.08,0,.14-.05.14-.14v-2.33c0-.61.27-.93.74-.93s.71.33.71.93v2.33c0,.08.05.14.14.14h.98c.08,0,.14-.05.14-.14v-2.6c0-1.16-.58-1.81-1.53-1.81Zm6-6.98s0-.03,0-.05v-7.51c0-.7.82-2.63,2.77-2.63,1.17,0,2.45.67,2.45,2.98v7.16c-.01.23.16.42.39.44.02,0,.03,0,.05,0h3.51c.23.01.42-.16.44-.39,0-.02,0-.03,0-.05v-8.03c0-3.83-2.31-6.16-5.2-6.16h0c-1.83-.01-3.52.97-4.41,2.57l-.12-1.81c0-.24-.19-.43-.42-.44,0,0,0,0-.01,0h-3.39c-.23-.01-.42.16-.44.39,0,.02,0,.03,0,.05v13.44c-.01.23.16.42.39.44.02,0,.03,0,.05,0h3.51c.23.01.42-.16.44-.39Zm-12.74,4.92c-.4,0-.7.31-.7.69s.3.7.7.7.69-.31.69-.7-.29-.69-.69-.69Zm.49,2.17h-.99c-.08,0-.14.05-.14.14v4.16c0,.08.05.14.14.14h.99c.08,0,.14-.05.14-.14v-4.16c0-.08-.05-.14-.14-.14Zm11.38-.11c-.68,0-1.15.27-1.45.73l-.02-.49c0-.08-.05-.14-.14-.14h-.9c-.08,0-.14.05-.14.14v5.88c0,.08.05.14.14.14h.99c.08,0,.14-.05.14-.14v-2.11c.31.4.77.63,1.38.63,1.24,0,2.1-1.01,2.1-2.33s-.86-2.33-2.1-2.33Zm-.26,3.51c-.67,0-1.13-.47-1.13-1.19s.46-1.19,1.13-1.19,1.14.48,1.14,1.19-.49,1.19-1.14,1.19Zm10.38-1.51l-.62-.24c-.24-.09-.43-.21-.43-.43,0-.19.14-.35.43-.35.26,0,.52.13.81.37.08.06.14.07.21,0l.4-.48c.05-.05.06-.13,0-.19-.37-.44-.91-.68-1.48-.68-.82,0-1.55.49-1.55,1.34,0,.62.4,1,.97,1.22l.56.23c.33.14.46.23.46.45,0,.25-.2.37-.5.37-.34,0-.65-.15-1.02-.43-.07-.05-.15-.07-.23.04l-.32.44c-.06.1-.07.2-.02.26.35.42.91.73,1.66.73.89,0,1.66-.46,1.67-1.36,0-.68-.43-1.07-1-1.29Zm-5.16-2c-1.34,0-2.33,1.01-2.33,2.33s.99,2.33,2.33,2.33,2.32-1.01,2.32-2.33-.99-2.33-2.32-2.33Zm0,3.5c-.63,0-1.12-.45-1.12-1.18s.49-1.18,1.12-1.18,1.11.45,1.11,1.18-.49,1.18-1.11,1.18Z"/>
</svg>