<?xml version="1.0" encoding="utf-8"?>
<!-- Generator: Adobe Illustrator 27.3.1, SVG Export Plug-In . SVG Version: 6.00 Build 0)  -->
<svg version="1.1" id="soundskrit-logo-gradient" xmlns="http://www.w3.org/2000/svg" xmlns:xlink="http://www.w3.org/1999/xlink"
	 x="0px" y="0px" viewBox="0 0 137 45.1" style="enable-background:new 0 0 137 45.1;" xml:space="preserve">
<style type="text/css">
	.st0{fill:#FFFFFF;}
</style>
<path class="st0" d="M104.6,36.7c1.4,0,2.3,1,2.3,2.3s-1,2.3-2.4,2.3c-0.6,0-1.2-0.2-1.6-0.6c-0.1-0.1-0.1-0.1,0-0.2l0.3-0.5
	c0-0.1,0.1-0.1,0.2,0c0.4,0.2,0.7,0.3,1,0.3c0.7,0,1.2-0.3,1.3-0.9h-2.7c-0.4,0-0.5-0.2-0.5-0.7C102.4,37.7,103.2,36.7,104.6,36.7
	L104.6,36.7z M105.6,38.6c-0.1-0.6-0.5-0.9-1.1-0.9s-0.9,0.3-1,0.9C103.6,38.6,105.6,38.6,105.6,38.6z M117.1,15.4
	c4.1,0,7.5,3.3,7.5,7.4v0c0,4.1-3.3,7.4-7.4,7.4h0c-4.1,0-7.5-3.3-7.5-7.5C109.6,18.8,113,15.4,117.1,15.4z M117,26.3
	c0,0,0.1,0,0.1,0l0,0c1.8,0,3.3-1.5,3.2-3.3c0,0,0-0.1,0-0.1c0.1-1.8-1.3-3.3-3.1-3.4s-3.3,1.3-3.4,3.1c0,0.1,0,0.2,0,0.4
	C113.8,24.7,115.2,26.2,117,26.3L117,26.3z M112.6,36.8h0.7v-1c0-0.1,0.1-0.1,0.1-0.1h1c0.1,0,0.1,0,0.1,0.1v1h0.6
	c0.1,0,0.1,0,0.1,0.1v0.7c0,0.1-0.1,0.1-0.1,0.1h-0.6V40c0,1-0.6,1.3-1.3,1.3c-0.3,0-0.8,0-0.8-0.3v-0.7c0-0.1,0.1-0.1,0.2-0.1
	c0.1,0,0.2,0,0.3,0c0.2,0,0.4-0.1,0.4-0.4v-2.1h-0.7c-0.1,0-0.1,0-0.1-0.1v-0.7C112.5,36.8,112.6,36.8,112.6,36.8L112.6,36.8z
	 M117.4,36.8c0.1,0,0.2-0.1,0.4-0.1c0.5,0,0.8,0.3,1,0.8l0-0.6c0-0.1,0.1-0.1,0.1-0.1h0.9c0.1,0,0.1,0,0.1,0.1v4.2
	c0,0.1-0.1,0.1-0.1,0.1h-1c-0.1,0-0.1,0-0.1-0.1v-2.2c0-0.6-0.3-1-0.9-1c-0.1,0-0.2,0-0.3,0c-0.1,0-0.2,0-0.2-0.1v-0.8
	C117.3,36.9,117.3,36.8,117.4,36.8z M109.2,36.7c0.7,0,1.1,0.3,1.3,0.8v-2.6c0-0.1,0.1-0.1,0.1-0.1h1c0.1,0,0.1,0,0.1,0.1v6.2
	c0,0.1-0.1,0.1-0.1,0.1h-1c-0.1,0-0.1,0-0.1-0.1v-2.3c0-0.6-0.3-1-0.9-1c-0.5,0-0.8,0.3-0.8,1v2.3c0,0.1-0.1,0.1-0.1,0.1h-1
	c-0.1,0-0.1,0-0.1-0.1v-2.6C107.6,37.3,108.3,36.7,109.2,36.7z M121.1,36.8h0.9c0.1,0,0.1,0,0.1,0.1l0,0.5c0.3-0.5,0.8-0.7,1.4-0.7
	c1.2,0,2.1,1,2.1,2.3s-0.9,2.3-2.1,2.3c-0.7,0-1.1-0.3-1.4-0.7l0,0.5c0,0.1,0,0.1-0.1,0.1h-0.9c-0.1,0-0.1,0-0.1-0.1v-4.2
	C121,36.9,121.1,36.8,121.1,36.8L121.1,36.8z M123.4,40.2c0.7,0,1.2-0.5,1.2-1.2s-0.5-1.2-1.2-1.2c-0.7,0-1.1,0.5-1.1,1.2
	S122.7,40.2,123.4,40.2z M27.8,30.1C27.8,30.1,27.8,30.1,27.8,30.1h-3.6c-0.2,0-0.4-0.2-0.4-0.4c0,0,0,0,0,0v-7.1
	c0-1.8-1.1-3.1-2.9-3.1c-0.4,0-0.8,0.1-1.2,0.2c-0.3,0.1-0.6,0-0.7-0.3l-1-2.5c-0.1-0.2-0.1-0.5,0.2-0.6l0,0c0.6-0.5,1.3-0.7,2-0.7
	c1.8,0,2.9,1,3.7,2.4l0.1-1.7c0-0.2,0.2-0.4,0.4-0.4c0,0,0,0,0,0h3.4c0.2,0,0.4,0.2,0.4,0.4c0,0,0,0,0,0v13.4
	C28.2,29.9,28,30.1,27.8,30.1L27.8,30.1z M44,30.1C44,30.1,44,30.1,44,30.1h-3.6c-0.2,0-0.4-0.2-0.4-0.4c0,0,0,0,0,0v-3.2l-1.7-1.9
	l-4,5.3c-0.1,0.2-0.3,0.3-0.5,0.3H30c-0.3,0-0.4-0.2-0.3-0.5l0,0l5.9-7.9l-5-5.4c-0.3-0.3-0.2-0.5,0.2-0.5h4c0.2,0,0.4,0.1,0.5,0.2
	L40,21V9.2c0-0.2,0.2-0.4,0.4-0.4c0,0,0,0,0.1,0h3.5c0.2,0,0.4,0.2,0.4,0.4c0,0,0,0,0,0.1v20.5C44.4,29.8,44.2,30,44,30.1L44,30.1z
	 M12.5,15.8H16c0.2,0,0.4,0.2,0.4,0.4c0,0,0,0,0,0l0,0v13.4c0,0.2-0.2,0.4-0.4,0.4c0,0,0,0-0.1,0h-3.5c-0.2,0-0.4-0.2-0.4-0.4
	c0,0,0,0,0,0V16.2C12.1,16,12.3,15.8,12.5,15.8C12.5,15.8,12.5,15.8,12.5,15.8z M132.4,19.9L132.4,19.9c0-0.5-0.4-1-1.3-1
	s-1.5,0.4-2.6,1c-0.3,0.2-0.5,0.3-0.6,0l-1.3-1.7c-0.2-0.2-0.2-0.4,0-0.6c1.3-1.4,3.1-2.2,5-2.2c2.6,0,5.1,1.6,5.1,4.5
	c0,4.8-6.6,3.9-6.6,5.8c0,0.8,0.9,0.9,1.5,0.9c1.2-0.1,2.4-0.5,3.4-1.2c0.3-0.1,0.5-0.2,0.7,0l1.3,1.9c0.1,0.2,0.1,0.4,0,0.6
	c-1.4,1.5-3.4,2.4-5.5,2.4c-2.7,0-5.6-1.6-5.6-4.5C125.7,20.5,132.4,21.9,132.4,19.9L132.4,19.9z M14.3,13.2L14.3,13.2L14.3,13.2
	c-1.3,0-2.4-1-2.4-2.3s1-2.4,2.3-2.4c1.3,0,2.4,1,2.4,2.3c0,0,0,0,0,0C16.6,12.2,15.6,13.2,14.3,13.2L14.3,13.2z M122.7,12.1
	c-0.1-0.1-9.5-7.7-22.7-7.7c-13.3,0-23.3,7.9-23.4,8c-0.4,0.3-0.9,0.5-1.4,0.5l0,0c-0.7,0-1.3-0.3-1.7-0.8c-0.8-0.9-0.6-2.3,0.3-3.1
	C74.3,8.6,85,0,100,0s25,8.3,25.5,8.7c0.9,0.8,1.1,2.1,0.3,3.1C125,12.7,123.6,12.8,122.7,12.1z M128.4,36.7c1.4,0,2.3,1,2.3,2.3
	s-1,2.3-2.4,2.3c-0.6,0-1.2-0.2-1.6-0.6c-0.1-0.1-0.1-0.1-0.1-0.2l0.3-0.5c0.1-0.1,0.1-0.1,0.2,0c0.4,0.2,0.7,0.3,1,0.3
	c0.7,0,1.2-0.3,1.3-0.9h-2.7c-0.4,0-0.5-0.2-0.5-0.7C126.2,37.7,127,36.7,128.4,36.7L128.4,36.7z M129.5,38.6
	c-0.1-0.6-0.5-0.9-1.1-0.9s-0.9,0.3-1,0.9H129.5z M131.6,34.9h1c0.1,0,0.1,0,0.1,0.1v2.5h2.3V35c0-0.1,0.1-0.1,0.1-0.1h1
	c0.1,0,0.1,0,0.1,0.1v6.1c0,0.1-0.1,0.1-0.1,0.1h-1c-0.1,0-0.1,0-0.1-0.1v-2.4h-2.3v2.4c0,0.1-0.1,0.1-0.1,0.1h-1
	c-0.1,0-0.1,0-0.1-0.1V35C131.4,34.9,131.5,34.9,131.6,34.9L131.6,34.9z M70.5,36.8h1c0.1,0,0.1,0,0.1,0.1v4.2
	c0,0.1-0.1,0.1-0.1,0.1h-1c-0.1,0-0.1,0-0.1-0.1v-4.2C70.3,36.8,70.4,36.8,70.5,36.8z M62.7,34.7h1c0.1,0,0.1,0,0.1,0.1v6.2
	c0,0.1-0.1,0.1-0.1,0.1h-1c-0.1,0-0.1,0-0.1-0.1v-6.2C62.6,34.8,62.6,34.7,62.7,34.7z M71,34.6c0.4,0,0.7,0.3,0.7,0.7S71.4,36,71,36
	s-0.7-0.3-0.7-0.7S70.6,34.6,71,34.6z M63.3,30.1C63.3,30.1,63.3,30.1,63.3,30.1h-3c-0.2,0-0.4-0.2-0.4-0.4c0,0,0,0,0,0V9.2
	c0-0.2,0.2-0.4,0.4-0.4c0,0,0,0,0.1,0h3.5c0.2,0,0.4,0.2,0.4,0.4c0,0,0,0,0,0.1v7.9c1-1,2.3-1.6,3.7-1.6c4,0,6.9,3.3,6.9,7.5
	S72,30.3,68,30.3c-1.6,0.1-3.1-0.6-4.1-1.9l-0.2,1.2C63.7,29.9,63.5,30.1,63.3,30.1L63.3,30.1z M67.4,26.3L67.4,26.3
	c1.8,0,3.2-1.4,3.2-3.1c0-0.1,0-0.2,0-0.2c0-2-1.4-3.5-3.2-3.5s-3.2,1.5-3.2,3.5S65.5,26.3,67.4,26.3L67.4,26.3z M66.7,36.7
	c0.6,0,1.1,0.2,1.4,0.6v-2.4c0-0.1,0.1-0.1,0.1-0.1h1c0.1,0,0.1,0,0.1,0.1V41c0,0.1-0.1,0.1-0.1,0.1h-0.9c-0.1,0-0.1,0-0.1-0.1
	l0-0.5c-0.3,0.5-0.8,0.7-1.4,0.7c-1.2,0-2.1-1-2.1-2.3S65.5,36.6,66.7,36.7L66.7,36.7z M67,40.2c0.7,0,1.1-0.5,1.1-1.2
	s-0.5-1.2-1.1-1.2s-1.1,0.5-1.1,1.2S66.3,40.2,67,40.2z M59.6,36.7c1.4,0,2.3,1,2.3,2.3s-1,2.3-2.4,2.3c-0.6,0-1.2-0.2-1.6-0.6
	c-0.1-0.1-0.1-0.1-0.1-0.2l0.3-0.5c0.1-0.1,0.1-0.1,0.2,0c0.4,0.2,0.7,0.3,1,0.3c0.7,0,1.2-0.3,1.3-0.9h-2.7c-0.4,0-0.5-0.2-0.5-0.7
	C57.4,37.6,58.2,36.6,59.6,36.7L59.6,36.7z M60.6,38.6c-0.1-0.6-0.5-0.9-1.1-0.9s-0.9,0.3-1,0.9H60.6z M7.1,33.6
	c0.1,0.1,8.8,7.2,21.2,7.2s21.8-7.4,21.9-7.5c0.9-0.8,2.3-0.7,3.1,0.2c0.8,0.9,0.7,2.3-0.2,3.1c0,0-0.1,0.1-0.1,0.1
	c-0.4,0.3-10.5,8.4-24.6,8.4c-8.7-0.1-17.1-3-24-8.2l0,0c-0.9-0.8-1.1-2.2-0.3-3.1S6.2,32.8,7.1,33.6L7.1,33.6z M0,16.2
	c0-0.2,0.2-0.4,0.4-0.4c0,0,0,0,0.1,0h2.3v-3.9c0-0.2,0.2-0.4,0.4-0.4c0,0,0,0,0.1,0h3.5c0.2,0,0.4,0.2,0.4,0.4c0,0,0,0,0,0.1v3.9
	h2.3c0.2,0,0.4,0.2,0.4,0.4c0,0,0,0,0,0v2.7c0,0.2-0.2,0.4-0.4,0.4c0,0,0,0-0.1,0H7.2v10.3c0,0.2-0.2,0.4-0.4,0.4c0,0,0,0-0.1,0H3.2
	c-0.2,0-0.4-0.2-0.4-0.4c0,0,0,0,0,0V19.3H0.4c-0.2,0-0.4-0.2-0.4-0.4c0,0,0,0,0,0C0,18.8,0,16.2,0,16.2z M51.9,30.4
	c-2.7,0-5.6-1.6-5.6-4.5c0-5.3,6.7-3.9,6.7-5.9l0,0c0-0.5-0.4-1-1.3-1s-1.5,0.4-2.6,1c-0.3,0.2-0.5,0.3-0.6,0l-1.3-1.7
	c-0.2-0.2-0.2-0.4,0-0.6c1.3-1.4,3.1-2.2,5-2.2c2.6,0,5.1,1.6,5.1,4.5c0,4.8-6.6,3.9-6.6,5.8c0,0.8,0.8,0.9,1.5,0.9
	c1.2-0.1,2.4-0.5,3.4-1.2c0.3-0.1,0.5-0.2,0.7,0l1.3,1.9c0.2,0.2,0.2,0.4,0,0.6C56,29.5,54,30.4,51.9,30.4L51.9,30.4z M56.5,39.8
	c0.4,0,0.7,0.3,0.7,0.8s-0.3,0.7-0.7,0.7s-0.8-0.3-0.8-0.7S56.1,39.8,56.5,39.8z M97.5,30.1h-3.4c-0.2,0-0.4-0.2-0.4-0.4
	c0,0,0,0,0,0V16.2c0-0.2,0.2-0.4,0.4-0.4c0,0,0,0,0.1,0h3.5c0.2,0,0.4,0.2,0.4,0.4c0,0,0,0,0,0v7.6c0,1.4,1.2,2.6,2.6,2.5
	c0,0,0,0,0.1,0c1.1,0,2.5-0.6,2.5-3v-7.2c0-0.2,0.2-0.4,0.4-0.4c0,0,0,0,0.1,0h3.5c0.2,0,0.4,0.2,0.4,0.4c0,0,0,0,0,0v8.1
	c0,3.8-2.3,6.2-5.5,6.2c-1.7-0.1-3.2-0.9-4.2-2.4L98,29.6C98,29.8,97.8,30,97.5,30.1C97.5,30,97.5,30,97.5,30.1L97.5,30.1z
	 M73.4,38.7l0.6-0.2c0.2-0.1,0.4-0.2,0.4-0.4c0-0.2-0.1-0.3-0.4-0.3c-0.3,0-0.5,0.1-0.8,0.4c-0.1,0.1-0.1,0.1-0.2,0l-0.4-0.5
	c-0.1,0-0.1-0.1,0-0.2c0.4-0.4,0.9-0.7,1.5-0.7c0.8,0,1.5,0.5,1.5,1.3c0,0.6-0.4,1-1,1.2l-0.6,0.2c-0.3,0.1-0.5,0.2-0.5,0.5
	c0,0.2,0.2,0.4,0.5,0.4c0.3,0,0.7-0.2,1-0.4c0.1,0,0.2-0.1,0.2,0l0.3,0.4c0.1,0.1,0.1,0.2,0,0.3c-0.3,0.4-0.9,0.7-1.7,0.7
	c-0.9,0-1.7-0.5-1.7-1.4C72.4,39.3,72.8,38.9,73.4,38.7z M92.6,36.7c0.7,0,1.1,0.3,1.4,0.8c0.2-0.5,0.7-0.8,1.3-0.8
	c0.6,0,1,0.3,1.2,0.7l0-0.5c0-0.1,0-0.1,0.1-0.1h0.9c0.1,0,0.1,0,0.1,0.1v4.2c0,0.1,0,0.1-0.1,0.1h-1c-0.1,0-0.1,0-0.1-0.1v-2.3
	c0-0.6-0.3-0.9-0.7-0.9s-0.7,0.3-0.7,0.9v2.3c0,0.1,0,0.1-0.1,0.1h-1c-0.1,0-0.1,0-0.1-0.1v-2.3c0-0.6-0.3-0.9-0.7-0.9
	s-0.7,0.3-0.7,0.9v2.3c0,0.1-0.1,0.1-0.1,0.1h-1c-0.1,0-0.1,0-0.1-0.1v-2.6C91.1,37.3,91.7,36.7,92.6,36.7L92.6,36.7z M86.6,29.7
	C86.6,29.7,86.6,29.7,86.6,29.7v-7.6c0-0.7-0.8-2.6-2.8-2.6c-1.2,0-2.4,0.7-2.4,3v7.2c0,0.2-0.2,0.4-0.4,0.4c0,0,0,0-0.1,0h-3.5
	c-0.2,0-0.4-0.2-0.4-0.4c0,0,0,0,0,0v-8c0-3.8,2.3-6.2,5.2-6.2l0,0c1.8,0,3.5,1,4.4,2.6l0.1-1.8c0-0.2,0.2-0.4,0.4-0.4c0,0,0,0,0,0
	h3.4c0.2,0,0.4,0.2,0.4,0.4c0,0,0,0,0,0v13.4c0,0.2-0.2,0.4-0.4,0.4c0,0,0,0-0.1,0h-3.5C86.8,30.1,86.6,29.9,86.6,29.7L86.6,29.7z
	 M99.4,34.6c0.4,0,0.7,0.3,0.7,0.7S99.8,36,99.4,36s-0.7-0.3-0.7-0.7S99,34.6,99.4,34.6z M98.9,36.8h1c0.1,0,0.1,0,0.1,0.1v4.2
	c0,0.1,0,0.1-0.1,0.1h-1c-0.1,0-0.1,0-0.1-0.1v-4.2C98.7,36.8,98.8,36.8,98.9,36.8z M87.5,36.7c0.7,0,1.2,0.3,1.5,0.7l0-0.5
	c0-0.1,0.1-0.1,0.1-0.1H90c0.1,0,0.1,0,0.1,0.1v5.9c0,0.1,0,0.1-0.1,0.1h-1c-0.1,0-0.1,0-0.1-0.1v-2.1c-0.3,0.4-0.8,0.6-1.4,0.6
	c-1.2,0-2.1-1-2.1-2.3S86.3,36.6,87.5,36.7L87.5,36.7z M87.8,40.2c0.7,0,1.1-0.5,1.1-1.2s-0.5-1.2-1.1-1.2c-0.7,0-1.1,0.5-1.1,1.2
	S87.1,40.2,87.8,40.2z M77.4,38.7l0.6-0.2c0.2-0.1,0.4-0.2,0.4-0.4c0-0.2-0.1-0.3-0.4-0.3c-0.3,0-0.5,0.1-0.8,0.4
	c-0.1,0.1-0.1,0.1-0.2,0l-0.4-0.5c0,0-0.1-0.1,0-0.2c0.4-0.4,0.9-0.7,1.5-0.7c0.8,0,1.5,0.5,1.5,1.3c0,0.6-0.4,1-1,1.2l-0.6,0.2
	c-0.3,0.1-0.5,0.2-0.5,0.5c0,0.2,0.2,0.4,0.5,0.4c0.3,0,0.7-0.2,1-0.4c0.1,0,0.2-0.1,0.2,0l0.3,0.4c0.1,0.1,0.1,0.2,0,0.3
	c-0.3,0.4-0.9,0.7-1.7,0.7c-0.9,0-1.7-0.5-1.7-1.4C76.4,39.3,76.8,38.9,77.4,38.7z M82.5,36.7c1.3,0,2.3,1,2.3,2.3s-1,2.3-2.3,2.3
	c-1.3,0-2.3-1-2.3-2.3S81.2,36.7,82.5,36.7z M82.5,40.2c0.6,0,1.1-0.5,1.1-1.2s-0.5-1.2-1.1-1.2s-1.1,0.5-1.1,1.2
	S81.9,40.2,82.5,40.2z"/>
</svg>
